<?xml version="1.0" encoding="utf-8"?>
<!-- Generator: Adobe Illustrator 21.0.0, SVG Export Plug-In . SVG Version: 6.00 Build 0)  -->
<svg version="1.1" id="图层_1" xmlns="http://www.w3.org/2000/svg" xmlns:xlink="http://www.w3.org/1999/xlink" x="0px" y="0px" viewBox="0 0 300 300" style="enable-background:new 0 0 300 300;" xml:space="preserve">
  <style type="text/css">
  .st0 {
    fill: #FFFFFF;
  }
  </style>
  <path class="st0" d="M239.9,224.4c-3.7-11.8-3.9-24.8,0-37.5c4.1-13.2,12.2-24,22.4-31.6c3.4-3.8,6-8.4,7.6-13.7
     c6.1-19.7-4.9-40.6-24.5-46.7c-19.7-6.2-40.7,4.8-46.9,24.5c0,0.1,0,0.1-0.1,0.2h0c-0.2,0.6-0.4,1.2-0.5,1.8l0,0l-30.5,100.6
     c0,0,0,0.1,0,0.1c0,0,0,0.1,0,0.1h0c0,0.1-0.1,0.2-0.1,0.4l-0.2,0.5l0,0c-5.5,19.5,5.5,39.9,25,45.9c19.8,6.1,40.7-5,46.8-24.7
     c2-6.5,2.1-13.1,0.8-19.2L239.9,224.4z" />
  <path class="st0" d="M119.9,203.4l-0.1-0.4c-7.8-6.2-13.9-14.5-17.5-24.6c-4-11.4-4.1-23.2-0.9-33.9l-0.2-0.7l0.3,0.4
     c4.9-16.2,17.1-29.9,34.3-36c0,0,0,0,0,0c6.4-2.3,12.9-3.3,19.4-3.2l-0.3-0.4c10.3-1.4,20-7,26.2-16.4c11.4-17.2,6.7-40.4-10.4-51.8
     c-17.2-11.5-40.4-6.8-51.9,10.4c-1.8,2.7-3.2,5.6-4.3,8.6l-0.3,0.2c-4.1,8.7-10.2,16.6-18.1,23v0c-10.6,8.5-23.1,13.2-35.7,14.3
     L60.1,93l0.2,0.2c-6.6,0.8-13,3.3-18.7,7.6c-16.4,12.7-19.4,36.2-6.7,52.6c0.7,0.9,1.4,1.8,2.2,2.6c9.8,7.6,17.7,17.9,22.1,30.4v0
     c4.3,12.2,4.9,24.9,2.2,36.7l0,0.1c-1,3.5-1.5,7.3-1.4,11.2c0,0,0,0,0,0c0.5,20.7,17.7,37.1,38.4,36.6c20.7-0.5,37.1-17.7,36.6-38.4
     C134.8,220.6,128.9,210,119.9,203.4z" />
</svg>
