<?xml version="1.0" encoding="UTF-8"?>
<svg width="129px" height="121px" viewBox="0 0 129 121" version="1.1" xmlns="http://www.w3.org/2000/svg" xmlns:xlink="http://www.w3.org/1999/xlink">
    <!-- Generator: Sketch 54.1 (76490) - https://sketchapp.com -->
    <title>成功</title>
    <desc>Created with Sketch.</desc>
    <defs>
        <ellipse id="path-1" cx="48.6013072" cy="47.6595745" rx="47.2418301" ry="46.9787234"></ellipse>
        <filter x="-1.1%" y="-1.1%" width="104.2%" height="104.3%" filterUnits="objectBoundingBox" id="filter-2">
            <feOffset dx="2" dy="2" in="SourceAlpha" result="shadowOffsetOuter1"></feOffset>
            <feColorMatrix values="0 0 0 0 0.563352382   0 0 0 0 0.790987319   0 0 0 0 0.687792814  0 0 0 0.559904939 0" type="matrix" in="shadowOffsetOuter1"></feColorMatrix>
        </filter>
        <linearGradient x1="50%" y1="100%" x2="50%" y2="0%" id="linearGradient-3">
            <stop stop-color="#808080" stop-opacity="0.25" offset="0%"></stop>
            <stop stop-color="#808080" stop-opacity="0.12" offset="54%"></stop>
            <stop stop-color="#808080" stop-opacity="0.1" offset="100%"></stop>
        </linearGradient>
        <linearGradient x1="-0.00666766682%" y1="50%" x2="100%" y2="50%" id="linearGradient-4">
            <stop stop-color="#808080" stop-opacity="0.25" offset="0%"></stop>
            <stop stop-color="#808080" stop-opacity="0.12" offset="54%"></stop>
            <stop stop-color="#808080" stop-opacity="0.1" offset="100%"></stop>
        </linearGradient>
        <linearGradient x1="50%" y1="100%" x2="50%" y2="0%" id="linearGradient-5">
            <stop stop-color="#808080" stop-opacity="0.25" offset="0%"></stop>
            <stop stop-color="#808080" stop-opacity="0.12" offset="54%"></stop>
            <stop stop-color="#808080" stop-opacity="0.1" offset="100%"></stop>
        </linearGradient>
        <linearGradient x1="-7.41306975e-14%" y1="49.9959926%" x2="100%" y2="49.9959926%" id="linearGradient-6">
            <stop stop-color="#808080" stop-opacity="0.25" offset="0%"></stop>
            <stop stop-color="#808080" stop-opacity="0.12" offset="54%"></stop>
            <stop stop-color="#808080" stop-opacity="0.1" offset="100%"></stop>
        </linearGradient>
        <linearGradient x1="0%" y1="50%" x2="100%" y2="50%" id="linearGradient-7">
            <stop stop-color="#808080" stop-opacity="0.25" offset="0%"></stop>
            <stop stop-color="#808080" stop-opacity="0.12" offset="54%"></stop>
            <stop stop-color="#808080" stop-opacity="0.1" offset="100%"></stop>
        </linearGradient>
        <linearGradient x1="-5.46886847e-14%" y1="50%" x2="100%" y2="50%" id="linearGradient-8">
            <stop stop-color="#808080" stop-opacity="0.25" offset="0%"></stop>
            <stop stop-color="#808080" stop-opacity="0.12" offset="54%"></stop>
            <stop stop-color="#808080" stop-opacity="0.1" offset="100%"></stop>
        </linearGradient>
        <linearGradient x1="73.6130704%" y1="88.8433075%" x2="16.5962584%" y2="43.6926616%" id="linearGradient-9">
            <stop stop-color="#808080" stop-opacity="0.25" offset="0%"></stop>
            <stop stop-color="#808080" stop-opacity="0.12" offset="54%"></stop>
            <stop stop-color="#808080" stop-opacity="0.1" offset="100%"></stop>
        </linearGradient>
        <linearGradient x1="33.4305739%" y1="85.8619069%" x2="70.2389788%" y2="44.4400071%" id="linearGradient-10">
            <stop stop-color="#808080" stop-opacity="0.25" offset="0%"></stop>
            <stop stop-color="#808080" stop-opacity="0.12" offset="54%"></stop>
            <stop stop-color="#808080" stop-opacity="0.1" offset="100%"></stop>
        </linearGradient>
        <circle id="path-11" cx="24" cy="24" r="24"></circle>
        <filter x="-2.1%" y="-2.1%" width="108.3%" height="108.3%" filterUnits="objectBoundingBox" id="filter-12">
            <feOffset dx="2" dy="2" in="SourceAlpha" result="shadowOffsetOuter1"></feOffset>
            <feColorMatrix values="0 0 0 0 0.106133114   0 0 0 0 0.376230522   0 0 0 0 0.462267889  0 0 0 0.617351399 0" type="matrix" in="shadowOffsetOuter1"></feColorMatrix>
        </filter>
    </defs>
    <g id="页面1" stroke="none" stroke-width="1" fill="none" fill-rule="evenodd">
        <g id="成功退订" transform="translate(-896.000000, -129.000000)">
            <g id="成功" transform="translate(896.000000, 129.000000)">
                <g id="编组-9" opacity="0.400000006" transform="translate(0.000000, 5.000000)" fill-rule="nonzero">
                    <path d="M16.9269841,11.3407059 L18.9746032,11.3407059 L18.9746032,12.7054118 L16.9269841,12.7054118 L16.9269841,14.7524706 L15.5619048,14.7524706 L15.5619048,12.7054118 L13.5142857,12.7054118 L13.5142857,11.3407059 L15.5619048,11.3407059 L15.5619048,8.61129412 L16.9269841,8.61129412 L16.9269841,11.3407059 Z" id="形状结合" fill="#47E6B1"></path>
                    <path d="M114.530159,5.19952941 L116.577778,5.19952941 L116.577778,6.56423529 L114.530159,6.56423529 L114.530159,8.61129412 L113.165079,8.61129412 L113.165079,6.56423529 L111.11746,6.56423529 L111.11746,5.19952941 L113.165079,5.19952941 L113.165079,3.15247059 L114.530159,3.15247059 L114.530159,5.19952941 Z" id="形状结合" fill="#47E6B1"></path>
                    <path d="M126.815873,72.0701176 L128.863492,72.0701176 L128.863492,73.4348235 L126.815873,73.4348235 L126.815873,75.4818824 L125.450794,75.4818824 L125.450794,73.4348235 L123.403175,73.4348235 L123.403175,72.0701176 L125.450794,72.0701176 L125.450794,70.0230588 L126.815873,70.0230588 L126.815873,72.0701176 Z" id="形状结合" fill="#47E6B1"></path>
                    <path d="M16.9269841,103.117176 L19.315873,103.117176 L19.315873,104.481882 L16.9269841,104.481882 L16.9269841,106.187765 L15.5619048,106.187765 L15.5619048,104.481882 L13.1730159,104.481882 L13.1730159,103.117176 L15.5619048,103.117176 L15.5619048,100.728941 L16.9269841,100.728941 L16.9269841,103.117176 Z" id="形状结合" fill="#47E6B1"></path>
                    <path d="M2.51432003,78.7248475 C2.16264806,78.5466972 1.98139765,78.0893024 2.09293179,77.6614524 C2.10200717,77.6296023 2.10779422,77.5966037 2.1101704,77.5631554 L2.1101704,77.5631554 C2.1139969,77.3722674 2.01339986,77.199639 1.85981536,77.1335364 C1.70623087,77.0674339 1.53360509,77.1224676 1.430203,77.2704984 L1.430203,77.2704984 C1.4132463,77.2974905 1.39910077,77.326738 1.38806418,77.3576253 C1.23532214,77.767797 0.843162147,77.9791979 0.476333247,77.8491104 C0.449025691,77.8385253 0.420733447,77.8317756 0.392055598,77.8290042 L0.392055598,77.8290042 C0.228392556,77.8245411 0.0803848326,77.9418723 0.0237099919,78.1210051 C-0.0329648487,78.300138 0.0142198048,78.5014797 0.141138052,78.6220824 L0.141138052,78.6220824 C0.16428052,78.6418598 0.189356676,78.6583584 0.215838696,78.6712309 C0.567510667,78.8493812 0.748761083,79.306776 0.637226941,79.734626 C0.62815156,79.7664761 0.62236451,79.7994747 0.619988331,79.832923 L0.619988331,79.832923 C0.616161832,80.023811 0.716758875,80.1964394 0.870343367,80.262542 C1.02392786,80.3286445 1.19655364,80.2736108 1.29995573,80.1255801 L1.29995573,80.1255801 C1.31691243,80.0985879 1.33105796,80.0693404 1.34209455,80.0384532 C1.49483659,79.6282814 1.88699658,79.4168805 2.25382548,79.546968 C2.28113304,79.5575531 2.30942528,79.5643028 2.33810313,79.5670743 L2.33810313,79.5670743 C2.50176617,79.5715373 2.6497739,79.4542062 2.70644874,79.2750733 C2.76312358,79.0959404 2.71593893,78.8945988 2.58902068,78.773996 L2.58902068,78.773996 C2.56587821,78.7542186 2.54080205,78.73772 2.51432003,78.7248475 L2.51432003,78.7248475 Z" id="路径" fill="#4D8AF0" opacity="0.5"></path>
                    <path d="M32.5460661,114.2072 C32.1943941,114.02905 32.0131437,113.571655 32.1246778,113.143805 C32.1337532,113.111955 32.1395403,113.078957 32.1419164,113.045508 L32.1419164,113.045508 C32.1457429,112.85462 32.0451459,112.681992 31.8915614,112.615889 C31.7379769,112.549787 31.5653511,112.604821 31.461949,112.752851 L31.461949,112.752851 C31.4449923,112.779843 31.4308468,112.809091 31.4198102,112.839978 C31.2670682,113.25015 30.8749082,113.461551 30.5080793,113.331463 C30.4807717,113.320878 30.4524795,113.314129 30.4238016,113.311357 L30.4238016,113.311357 C30.2601386,113.306894 30.1121309,113.424225 30.055456,113.603358 C29.9987812,113.782491 30.0459658,113.983833 30.1728841,114.104435 L30.1728841,114.104435 C30.1960266,114.124213 30.2211027,114.140711 30.2475847,114.153584 C30.5992567,114.331734 30.7805071,114.789129 30.668973,115.216979 C30.6598976,115.248829 30.6541105,115.281828 30.6517344,115.315276 L30.6517344,115.315276 C30.6479079,115.506164 30.7485049,115.678792 30.9020894,115.744895 C31.0556739,115.810997 31.2282997,115.755964 31.3317018,115.607933 L31.3317018,115.607933 C31.3486585,115.580941 31.362804,115.551693 31.3738406,115.520806 C31.5265826,115.110634 31.9187426,114.899233 32.2855715,115.029321 C32.3128791,115.039906 32.3411713,115.046656 32.3698492,115.049427 L32.3698492,115.049427 C32.5335122,115.05389 32.6815199,114.936559 32.7381948,114.757426 C32.7948696,114.578293 32.747685,114.376952 32.6207667,114.256349 L32.6207667,114.256349 C32.5976242,114.236572 32.5725481,114.220073 32.5460661,114.2072 Z" id="路径" fill="#4D8AF0" opacity="0.5"></path>
                    <path d="M115.079408,36.2868047 C114.639818,36.1231973 114.413255,35.7031408 114.552673,35.3102174 C114.564017,35.2809673 114.571251,35.2506625 114.574221,35.2199446 L114.574221,35.2199446 C114.579004,35.0446394 114.453258,34.886103 114.261277,34.8253966 C114.069297,34.7646902 113.853514,34.8152313 113.724262,34.951178 L113.724262,34.951178 C113.703066,34.9759667 113.685384,35.0028266 113.671588,35.0311925 C113.480661,35.4078808 112.990461,35.6020245 112.531924,35.4825564 C112.49779,35.4728354 112.462425,35.4666367 112.426577,35.4640915 L112.426577,35.4640915 C112.221999,35.4599928 112.036989,35.5677458 111.966145,35.7322556 C111.895302,35.8967654 111.954283,36.081671 112.112931,36.1924286 L112.112931,36.1924286 C112.141859,36.2105916 112.173204,36.2257433 112.206306,36.237565 C112.645896,36.4011724 112.872459,36.8212289 112.733042,37.2141523 C112.721697,37.2434024 112.714464,37.2737072 112.711493,37.3044251 L112.711493,37.3044251 C112.70671,37.4797304 112.832457,37.6382667 113.024437,37.6989731 C113.216418,37.7596796 113.4322,37.7091384 113.561453,37.5731918 L113.561453,37.5731918 C113.582648,37.5484031 113.60033,37.5215431 113.614126,37.4931773 C113.805054,37.116489 114.295254,36.9223452 114.75379,37.0418134 C114.787924,37.0515344 114.82329,37.0577331 114.859137,37.0602783 L114.859137,37.0602783 C115.063716,37.064377 115.248725,36.9566239 115.319569,36.7921141 C115.390412,36.6276043 115.331432,36.4426988 115.172784,36.3319411 L115.172784,36.3319411 C115.143856,36.3137782 115.112511,36.2986264 115.079408,36.2868047 L115.079408,36.2868047 Z" id="路径" fill="#4D8AF0" opacity="0.5"></path>
                    <path d="M63.9428915,113.97592 C63.5912195,113.823219 63.4099691,113.431167 63.5215032,113.064438 C63.5305786,113.037138 63.5363656,113.008854 63.5387418,112.980184 L63.5387418,112.980184 C63.5425683,112.816565 63.4419713,112.668598 63.2883868,112.611939 C63.1348023,112.555279 62.9621765,112.602451 62.8587744,112.729335 L62.8587744,112.729335 C62.8418177,112.752471 62.8276722,112.77754 62.8166356,112.804015 C62.6638936,113.155591 62.2717336,113.336792 61.9049047,113.225288 C61.8775971,113.216215 61.8493049,113.21043 61.820627,113.208054 L61.820627,113.208054 C61.656964,113.204229 61.5089563,113.304798 61.4522814,113.458341 C61.3956066,113.611883 61.4427912,113.784462 61.5697095,113.887835 L61.5697095,113.887835 C61.5928519,113.904787 61.6179281,113.918929 61.6444101,113.929963 C61.9960821,114.082663 62.1773325,114.474716 62.0657984,114.841444 C62.056723,114.868744 62.0509359,114.897029 62.0485598,114.925699 L62.0485598,114.925699 C62.0447333,115.089317 62.1453303,115.237284 62.2989148,115.293944 C62.4524993,115.350603 62.6251251,115.303431 62.7285272,115.176548 L62.7285272,115.176548 C62.7454839,115.153411 62.7596294,115.128342 62.770666,115.101867 C62.923408,114.750292 63.315568,114.569091 63.6823969,114.680594 C63.7097045,114.689667 63.7379967,114.695453 63.7666746,114.697828 L63.7666746,114.697828 C63.9303376,114.701654 64.0783453,114.601084 64.1350202,114.447542 C64.191695,114.293999 64.1445104,114.121421 64.0175921,114.018047 L64.0175921,114.018047 C63.9944496,114.001095 63.9693735,113.986953 63.9428915,113.97592 L63.9428915,113.97592 Z" id="路径" fill="#4D8AF0" opacity="0.5"></path>
                    <ellipse id="椭圆形" fill="#F55F44" opacity="0.5" cx="98.968254" cy="110.2" rx="1.70634921" ry="1.70588235"></ellipse>
                    <ellipse id="椭圆形" fill="#4D8AF0" opacity="0.5" cx="86" cy="1.70588235" rx="1.70634921" ry="1.70588235"></ellipse>
                    <ellipse id="椭圆形" fill="#47E6B1" opacity="0.5" cx="37.5396825" cy="10.5764706" rx="1.70634921" ry="1.70588235"></ellipse>
                    <ellipse id="椭圆形" fill="#F55F44" opacity="0.5" cx="15.015873" cy="35.1411765" rx="1.70634921" ry="1.70588235"></ellipse>
                </g>
                <g id="编组-7复制" transform="translate(18.000000, 15.000000)" fill-rule="nonzero">
                    <g id="编组-2复制-2">
                        <g id="椭圆形">
                            <use fill="black" fill-opacity="1" filter="url(#filter-2)" xlink:href="#path-1"></use>
                            <use fill="#6EBA97" xlink:href="#path-1"></use>
                        </g>
                        <ellipse id="椭圆形" fill="#000000" opacity="0.05" cx="32.9673203" cy="20.0851064" rx="5.77777778" ry="5.78723404"></ellipse>
                        <ellipse id="椭圆形" fill="#000000" opacity="0.05" cx="50.6405229" cy="82.7234043" rx="5.77777778" ry="5.78723404"></ellipse>
                        <ellipse id="椭圆形" fill="#000000" opacity="0.05" cx="56.7581699" cy="40.5106383" rx="11.8954248" ry="11.9148936"></ellipse>
                    </g>
                    <g id="undraw_mail_box_kd5i复制-2" transform="translate(9.516340, 20.787234)">
                        <rect id="矩形" fill="url(#linearGradient-3)" x="35.3464052" y="41.8510638" width="7.47712418" height="32"></rect>
                        <rect id="矩形" fill="#005356" opacity="0.421037946" x="36.0261438" y="41.8510638" width="6.11764706" height="31.3191489"></rect>
                        <path d="M60.6365412,15.9787234 L26.458238,15.9787234 C25.2833958,16.0087848 24.125578,16.2674898 23.0491776,16.7404505 C19.5748526,18.2843536 17.5526669,20.7075658 16.9816008,26.0815757 L16.9816008,38.4972154 L7.92510511,38.4011049 C6.1038123,38.4011049 5.4379085,41.2721513 5.4379085,43.212766 L66.6143791,43.212766 L66.6143791,22.3475795 C66.6143791,18.8303432 63.941586,15.9787234 60.6365412,15.9787234 Z" id="路径" fill="url(#linearGradient-4)"></path>
                        <path d="M27.869281,17.3404255 L61.7804962,17.3404255 C64.0747668,17.3404255 65.9346405,19.1785777 65.9346405,21.4460533 L65.9346405,41.8510638 L27.869281,41.8510638 L27.869281,17.3404255 Z" id="路径" fill="#008288"></path>
                        <path d="M26.8496732,17.3404255 L26.8496732,17.3404255 C31.917698,17.3404255 36.0261438,21.4112006 36.0261438,26.4327561 L36.0261438,37.4012819 C36.0261438,39.8588286 34.0154725,41.8510638 31.5351838,41.8510638 L22.1641626,41.8510638 C19.6838739,41.8510638 17.6732026,39.8588286 17.6732026,37.4012819 L17.6732026,26.4327561 C17.6732026,21.4112006 21.7816484,17.3404255 26.8496732,17.3404255 Z" id="路径" fill="#008288"></path>
                        <path d="M26.8496732,17.3404255 L26.8496732,17.3404255 C31.917698,17.3404255 36.0261438,21.4112006 36.0261438,26.4327561 L36.0261438,37.4012819 C36.0261438,39.8588286 34.0154725,41.8510638 31.5351838,41.8510638 L22.1641626,41.8510638 C19.6838739,41.8510638 17.6732026,39.8588286 17.6732026,37.4012819 L17.6732026,26.4327561 C17.6732026,21.4112006 21.7816484,17.3404255 26.8496732,17.3404255 Z" id="路径" fill="#000000" opacity="0.2"></path>
                        <polygon id="路径" fill="url(#linearGradient-5)" points="50.9803922 13.9361702 46.3074407 13.9361702 43.503268 13.9361702 43.503268 19.7353238 43.503268 26.8723404 46.8972112 26.8723404 46.8972112 19.7353238 50.9803922 19.7353238"></polygon>
                        <polygon id="矩形" fill="url(#linearGradient-6)" transform="translate(23.524923, 26.452234) rotate(-83.060000) translate(-23.524923, -26.452234) " points="19.6213395 20.0969396 27.4274985 20.0975595 27.4285072 32.8075291 19.6223482 32.8069092"></polygon>
                        <polygon id="矩形" fill="#FAF8E4" transform="translate(23.473971, 26.378932) rotate(-83.060000) translate(-23.473971, -26.378932) " points="19.8310171 20.2391071 27.1159511 20.2396856 27.1169256 32.518757 19.8319916 32.5181785"></polygon>
                        <g id="编组" opacity="0.6" transform="translate(17.673203, 22.106383)" fill="#6C63FF">
                            <polygon id="矩形" transform="translate(1.504052, 0.777860) rotate(-173.060000) translate(-1.504052, -0.777860) " points="0.739965455 0.149024503 2.25355201 0.168738847 2.26813857 1.40669483 0.754552014 1.38698049"></polygon>
                            <polygon id="矩形" transform="translate(4.555278, 4.040752) rotate(-173.060000) translate(-4.555278, -4.040752) " points="1.64759644 3.80222027 7.45822957 3.8779033 7.46295895 4.27928462 1.65232583 4.20360159"></polygon>
                            <polygon id="矩形" transform="translate(5.233188, 5.077735) rotate(-173.060000) translate(-5.233188, -5.077735) " points="3.11318468 4.91653038 7.350043 4.97171513 7.35319164 5.2389391 3.11633332 5.18375436"></polygon>
                        </g>
                        <polygon id="矩形" fill="url(#linearGradient-6)" transform="translate(28.665758, 28.156754) rotate(-83.060000) translate(-28.665758, -28.156754) " points="24.7621742 21.8014595 32.5683332 21.8020794 32.5693419 34.512049 24.7631829 34.5114291"></polygon>
                        <polygon id="矩形" fill="#FAF8E4" transform="translate(28.614806, 28.084470) rotate(-83.060000) translate(-28.614806, -28.084470) " points="24.9718518 21.944645 32.2567858 21.9452235 32.2577602 34.2242949 24.9728263 34.2237164"></polygon>
                        <g id="编组" opacity="0.6" transform="translate(23.790850, 24.148936)" fill="#6C63FF">
                            <polygon id="矩形" transform="translate(0.858528, 0.751170) rotate(-173.060000) translate(-0.858528, -0.751170) " points="0.104119725 0.121156395 1.59643308 0.143460149 1.61293553 1.38118292 0.120622177 1.35887917"></polygon>
                            <polygon id="矩形" transform="translate(3.866164, 4.014062) rotate(-173.060000) translate(-3.866164, -4.014062) " points="0.999006248 3.77059772 6.72797193 3.85622145 6.73332251 4.25752716 1.00435682 4.17190343"></polygon>
                            <polygon id="矩形" transform="translate(4.532455, 5.050913) rotate(-173.060000) translate(-4.532455, -5.050913) " points="2.4420193 4.88610941 6.61932931 4.94854247 6.62289151 5.21571611 2.4455815 5.15328305"></polygon>
                        </g>
                        <polygon id="矩形" fill="url(#linearGradient-7)" transform="translate(24.824532, 31.126814) rotate(-83.060000) translate(-24.824532, -31.126814) " points="19.5332104 22.5125045 30.1144854 22.5133448 30.1158526 39.7411245 19.5345777 39.7402842"></polygon>
                        <polygon id="矩形" fill="#FFFFFF" transform="translate(24.492168, 31.026391) rotate(-83.060000) translate(-24.492168, -31.026391) " points="19.553613 22.7039583 29.4294018 22.7047426 29.4307227 39.3488232 19.5549339 39.3480389"></polygon>
                        <g id="编组" opacity="0.6" transform="translate(16.978193, 26.102064)" fill="#6C63FF">
                            <polygon id="矩形" transform="translate(1.215870, 0.945118) rotate(-173.060000) translate(-1.215870, -0.945118) " points="0.172327702 0.156275059 2.25554057 0.161508471 2.25941214 1.73396051 0.176199268 1.7287271"></polygon>
                            <polygon id="矩形" transform="translate(5.420268, 5.087013) rotate(-173.060000) translate(-5.420268, -5.087013) " points="1.42005184 4.82187604 9.41922853 4.84197143 9.42048465 5.3521493 1.42130796 5.33205391"></polygon>
                            <polygon id="矩形" transform="translate(6.355210, 6.402026) rotate(-173.060000) translate(-6.355210, -6.402026) " points="3.43839324 6.22446952 9.27118888 6.23912257 9.27202713 6.57958196 3.43923149 6.56492891"></polygon>
                        </g>
                        <g id="编组-4" opacity="0.631905692" transform="translate(21.938220, 52.494934) rotate(45.000000) translate(-21.938220, -52.494934) translate(12.438220, 45.994934)">
                            <polygon id="矩形" fill="url(#linearGradient-8)" transform="translate(9.792641, 6.679851) rotate(-83.060000) translate(-9.792641, -6.679851) " points="4.50131974 -1.93445945 15.0825947 -1.93361916 15.0839619 15.2941605 4.50268696 15.2933202"></polygon>
                            <polygon id="矩形" fill="#FFFFFF" transform="translate(9.723430, 6.294271) rotate(-83.060000) translate(-9.723430, -6.294271) " points="4.78487508 -2.02816157 14.6606639 -2.02737731 14.6619848 14.6167033 4.78619598 14.6159191"></polygon>
                            <g id="编组" opacity="0.6" transform="translate(2.039216, 1.100196)" fill="#6C63FF">
                                <polygon id="矩形" transform="translate(1.168596, 0.915502) rotate(-173.060000) translate(-1.168596, -0.915502) " points="0.115120664 0.127868409 2.22016514 0.13044444 2.22207083 1.70313577 0.117026357 1.70055974"></polygon>
                                <polygon id="矩形" transform="translate(5.417722, 5.057397) rotate(-173.060000) translate(-5.417722, -5.057397) " points="1.37590943 4.79732346 9.4589157 4.80721498 9.459534 5.31747049 1.37652773 5.30757897"></polygon>
                                <polygon id="矩形" transform="translate(6.362488, 6.372403) rotate(-173.060000) translate(-6.362488, -6.372403) " points="3.4153202 6.19854063 9.30924222 6.20575327 9.30965483 6.54626447 3.41573281 6.53905183"></polygon>
                            </g>
                        </g>
                        <path d="M26.6761334,17.3404284 L26.6761334,17.3404284 C25.4529953,17.3394717 24.2416284,17.5764636 23.1111111,18.0378897 C23.5514637,17.9754525 23.9957383,17.9439194 24.4405998,17.9435273 L24.4405998,17.9435273 C26.9203767,17.9435273 29.2985884,18.9170599 31.0520555,20.6499591 C32.8055226,22.3828583 33.7906102,24.733174 33.7906102,27.1838635 L33.7906102,41.8510638 L36.0261438,41.8510638 L36.0261438,26.5807646 C36.0261438,21.4774679 31.8400015,17.3404284 26.6761334,17.3404284 Z" id="路径" fill="#000000" opacity="0.2"></path>
                        <path d="M9.95763292,38.4468085 L36.0261438,38.4468085 L36.0261438,41.8510638 L6.79738562,41.8510638 L6.79738562,41.8510638 C6.79738562,39.9709455 8.21227653,38.4468085 9.95763292,38.4468085 L9.95763292,38.4468085 Z" id="路径" fill="#008288"></path>
                        <path d="M9.95763292,38.4468085 L36.0261438,38.4468085 L36.0261438,41.8510638 L6.79738562,41.8510638 L6.79738562,41.8510638 C6.79738562,39.9709455 8.21227653,38.4468085 9.95763292,38.4468085 L9.95763292,38.4468085 Z" id="路径" fill="#008288" opacity="0.2"></path>
                        <g id="编组-11" transform="translate(29.000000, 0.000000)">
                            <polygon id="路径" fill="url(#linearGradient-9)" points="0.306230342 7.3385971 -7.10542736e-14 7.4893617 0.0350566721 7.42593659 0.00824862874 7.43425464 0.0463985367 7.40618123 4.17277506 -8.8817842e-16 6.28236186 1.81437403 8.09293587 3.50397736 7.57327226 3.75975731 8.15686275 4.79847345"></polygon>
                            <polygon id="路径" fill="#6C63FF" points="5.82787952 2.04255319 7.47712418 3.63080541 8.52651283e-14 7.4893617 3.97916262 2.19518765"></polygon>
                            <polygon id="路径" fill="#000000" opacity="0.2" points="5.82787952 2.04255319 7.47712418 3.63080541 8.52651283e-14 7.4893617 3.97916262 2.19518765"></polygon>
                            <polygon id="路径" fill="#008288" points="4.09713977 0.680851064 -6.39488462e-14 7.4893617 6.11764706 2.30294137"></polygon>
                            <polygon id="路径" fill="#008288" points="7.47712418 4.28554106 8.52651283e-14 6.80851064 6.24985719 2.04255319"></polygon>
                        </g>
                        <polygon id="路径" fill="url(#linearGradient-10)" points="12.426825 10.4532766 12.9150327 10.5319149 12.8394524 10.4575273 12.881328 10.4575273 12.8159613 10.4341483 3.94447261 1.68085106 1.79145649 5.21638827 0 8.44162284 0.829340177 8.57552055 0.461652414 10.3225669"></polygon>
                        <polygon id="路径" fill="#6C63FF" points="2.25603284 5.00198749 0.679738562 7.87379064 12.2352941 9.85106383 4.7926662 4.40425532"></polygon>
                        <polygon id="路径" fill="#000000" opacity="0.2" points="2.25603284 5.00198749 0.679738562 7.87379064 12.2352941 9.85106383 4.7926662 4.40425532"></polygon>
                        <polygon id="路径" fill="#008288" points="3.97850136 1.68085106 12.2352941 9.85106383 2.03921569 4.89631374"></polygon>
                        <polygon id="路径" fill="#008288" points="1.35947712 8.97360337 12.9150327 9.17021277 2.12786676 5.76595745"></polygon>
                    </g>
                </g>
                <g transform="translate(75.000000, 0.000000)">
                    <g id="椭圆形">
                        <use fill="black" fill-opacity="1" filter="url(#filter-12)" xlink:href="#path-11"></use>
                        <use fill="#E7F5EF" fill-rule="evenodd" xlink:href="#path-11"></use>
                    </g>
                    <path d="M20.8736751,33.4968765 C21.1860782,33.8228438 21.609558,34 22.0538647,34 L22.0746916,34 C22.5259406,34 22.9494204,33.8228438 23.2687659,33.4968765 L38.5070973,17.9425641 C38.8264427,17.6165967 39,17.1843357 39,16.7237296 C39,16.2631235 38.8264427,15.8308625 38.5070973,15.5048951 C37.8475795,14.8317016 36.7784665,14.8317016 36.1189487,15.5048951 L22.0677493,29.840373 L13.8827868,21.4856876 C13.5634414,21.1597203 13.1399616,20.9825641 12.6887126,20.9825641 C12.2374636,20.9825641 11.8139838,21.1597203 11.4946383,21.4856876 C10.8351206,22.1588811 10.8351206,23.2501632 11.4946383,23.9233566 L20.8736751,33.4968765 Z" id="路径" fill="#008288" fill-rule="nonzero"></path>
                </g>
            </g>
        </g>
    </g>
</svg>