<?xml version="1.0" encoding="UTF-8"?>
<svg width="129px" height="117px" viewBox="0 0 129 117" version="1.1" xmlns="http://www.w3.org/2000/svg" xmlns:xlink="http://www.w3.org/1999/xlink">
    <!-- Generator: Sketch 54.1 (76490) - https://sketchapp.com -->
    <title>未订阅</title>
    <desc>Created with Sketch.</desc>
    <defs>
        <ellipse id="path-1" cx="48.8032095" cy="47.8025693" rx="47.4380847" ry="47.1196755"></ellipse>
        <filter x="-1.1%" y="-1.1%" width="104.2%" height="104.2%" filterUnits="objectBoundingBox" id="filter-2">
            <feOffset dx="2" dy="2" in="SourceAlpha" result="shadowOffsetOuter1"></feOffset>
            <feColorMatrix values="0 0 0 0 0.791129987   0 0 0 0 0.785018744   0 0 0 0 0.913354846  0 0 0 1 0" type="matrix" in="shadowOffsetOuter1"></feColorMatrix>
        </filter>
        <linearGradient x1="50%" y1="100%" x2="50%" y2="0%" id="linearGradient-3">
            <stop stop-color="#808080" stop-opacity="0.25" offset="0%"></stop>
            <stop stop-color="#808080" stop-opacity="0.12" offset="54%"></stop>
            <stop stop-color="#808080" stop-opacity="0.1" offset="100%"></stop>
        </linearGradient>
        <linearGradient x1="-0.00666766682%" y1="50%" x2="100%" y2="50%" id="linearGradient-4">
            <stop stop-color="#808080" stop-opacity="0.25" offset="0%"></stop>
            <stop stop-color="#808080" stop-opacity="0.12" offset="54%"></stop>
            <stop stop-color="#808080" stop-opacity="0.1" offset="100%"></stop>
        </linearGradient>
        <linearGradient x1="50%" y1="100%" x2="50%" y2="0%" id="linearGradient-5">
            <stop stop-color="#808080" stop-opacity="0.25" offset="0%"></stop>
            <stop stop-color="#808080" stop-opacity="0.12" offset="54%"></stop>
            <stop stop-color="#808080" stop-opacity="0.1" offset="100%"></stop>
        </linearGradient>
        <linearGradient x1="73.6130704%" y1="88.7540857%" x2="16.5962584%" y2="43.7071494%" id="linearGradient-6">
            <stop stop-color="#808080" stop-opacity="0.25" offset="0%"></stop>
            <stop stop-color="#808080" stop-opacity="0.12" offset="54%"></stop>
            <stop stop-color="#808080" stop-opacity="0.1" offset="100%"></stop>
        </linearGradient>
        <linearGradient x1="33.4305739%" y1="85.7795333%" x2="70.2389788%" y2="44.4527782%" id="linearGradient-7">
            <stop stop-color="#808080" stop-opacity="0.25" offset="0%"></stop>
            <stop stop-color="#808080" stop-opacity="0.12" offset="54%"></stop>
            <stop stop-color="#808080" stop-opacity="0.1" offset="100%"></stop>
        </linearGradient>
        <filter x="-8.3%" y="-8.3%" width="116.7%" height="116.7%" filterUnits="objectBoundingBox" id="filter-8">
            <feOffset dx="2" dy="2" in="SourceAlpha" result="shadowOffsetOuter1"></feOffset>
            <feColorMatrix values="0 0 0 0 0.205523871   0 0 0 0 0.190519741   0 0 0 0 0.490602355  0 0 0 0.510762675 0" type="matrix" in="shadowOffsetOuter1" result="shadowMatrixOuter1"></feColorMatrix>
            <feMerge>
                <feMergeNode in="shadowMatrixOuter1"></feMergeNode>
                <feMergeNode in="SourceGraphic"></feMergeNode>
            </feMerge>
        </filter>
    </defs>
    <g id="页面1" stroke="none" stroke-width="1" fill="none" fill-rule="evenodd">
        <g id="尚未订阅" transform="translate(-896.000000, -131.000000)">
            <g id="未订阅" transform="translate(896.000000, 131.000000)">
                <g id="编组-9复制" opacity="0.400000006" transform="translate(0.000000, 1.000000)" fill-rule="nonzero">
                    <path d="M16.9269841,11.3407059 L18.9746032,11.3407059 L18.9746032,12.7054118 L16.9269841,12.7054118 L16.9269841,14.7524706 L15.5619048,14.7524706 L15.5619048,12.7054118 L13.5142857,12.7054118 L13.5142857,11.3407059 L15.5619048,11.3407059 L15.5619048,8.61129412 L16.9269841,8.61129412 L16.9269841,11.3407059 Z" id="形状结合" fill="#47E6B1"></path>
                    <path d="M114.530159,5.19952941 L116.577778,5.19952941 L116.577778,6.56423529 L114.530159,6.56423529 L114.530159,8.61129412 L113.165079,8.61129412 L113.165079,6.56423529 L111.11746,6.56423529 L111.11746,5.19952941 L113.165079,5.19952941 L113.165079,3.15247059 L114.530159,3.15247059 L114.530159,5.19952941 Z" id="形状结合" fill="#47E6B1"></path>
                    <path d="M126.815873,72.0701176 L128.863492,72.0701176 L128.863492,73.4348235 L126.815873,73.4348235 L126.815873,75.4818824 L125.450794,75.4818824 L125.450794,73.4348235 L123.403175,73.4348235 L123.403175,72.0701176 L125.450794,72.0701176 L125.450794,70.0230588 L126.815873,70.0230588 L126.815873,72.0701176 Z" id="形状结合" fill="#47E6B1"></path>
                    <path d="M16.9269841,103.117176 L19.315873,103.117176 L19.315873,104.481882 L16.9269841,104.481882 L16.9269841,106.187765 L15.5619048,106.187765 L15.5619048,104.481882 L13.1730159,104.481882 L13.1730159,103.117176 L15.5619048,103.117176 L15.5619048,100.728941 L16.9269841,100.728941 L16.9269841,103.117176 Z" id="形状结合" fill="#47E6B1"></path>
                    <path d="M2.51432003,78.7248475 C2.16264806,78.5466972 1.98139765,78.0893024 2.09293179,77.6614524 C2.10200717,77.6296023 2.10779422,77.5966037 2.1101704,77.5631554 L2.1101704,77.5631554 C2.1139969,77.3722674 2.01339986,77.199639 1.85981536,77.1335364 C1.70623087,77.0674339 1.53360509,77.1224676 1.430203,77.2704984 L1.430203,77.2704984 C1.4132463,77.2974905 1.39910077,77.326738 1.38806418,77.3576253 C1.23532214,77.767797 0.843162147,77.9791979 0.476333247,77.8491104 C0.449025691,77.8385253 0.420733447,77.8317756 0.392055598,77.8290042 L0.392055598,77.8290042 C0.228392556,77.8245411 0.0803848326,77.9418723 0.0237099919,78.1210051 C-0.0329648487,78.300138 0.0142198048,78.5014797 0.141138052,78.6220824 L0.141138052,78.6220824 C0.16428052,78.6418598 0.189356676,78.6583584 0.215838696,78.6712309 C0.567510667,78.8493812 0.748761083,79.306776 0.637226941,79.734626 C0.62815156,79.7664761 0.62236451,79.7994747 0.619988331,79.832923 L0.619988331,79.832923 C0.616161832,80.023811 0.716758875,80.1964394 0.870343367,80.262542 C1.02392786,80.3286445 1.19655364,80.2736108 1.29995573,80.1255801 L1.29995573,80.1255801 C1.31691243,80.0985879 1.33105796,80.0693404 1.34209455,80.0384532 C1.49483659,79.6282814 1.88699658,79.4168805 2.25382548,79.546968 C2.28113304,79.5575531 2.30942528,79.5643028 2.33810313,79.5670743 L2.33810313,79.5670743 C2.50176617,79.5715373 2.6497739,79.4542062 2.70644874,79.2750733 C2.76312358,79.0959404 2.71593893,78.8945988 2.58902068,78.773996 L2.58902068,78.773996 C2.56587821,78.7542186 2.54080205,78.73772 2.51432003,78.7248475 L2.51432003,78.7248475 Z" id="路径" fill="#4D8AF0" opacity="0.5"></path>
                    <path d="M32.5460661,114.2072 C32.1943941,114.02905 32.0131437,113.571655 32.1246778,113.143805 C32.1337532,113.111955 32.1395403,113.078957 32.1419164,113.045508 L32.1419164,113.045508 C32.1457429,112.85462 32.0451459,112.681992 31.8915614,112.615889 C31.7379769,112.549787 31.5653511,112.604821 31.461949,112.752851 L31.461949,112.752851 C31.4449923,112.779843 31.4308468,112.809091 31.4198102,112.839978 C31.2670682,113.25015 30.8749082,113.461551 30.5080793,113.331463 C30.4807717,113.320878 30.4524795,113.314129 30.4238016,113.311357 L30.4238016,113.311357 C30.2601386,113.306894 30.1121309,113.424225 30.055456,113.603358 C29.9987812,113.782491 30.0459658,113.983833 30.1728841,114.104435 L30.1728841,114.104435 C30.1960266,114.124213 30.2211027,114.140711 30.2475847,114.153584 C30.5992567,114.331734 30.7805071,114.789129 30.668973,115.216979 C30.6598976,115.248829 30.6541105,115.281828 30.6517344,115.315276 L30.6517344,115.315276 C30.6479079,115.506164 30.7485049,115.678792 30.9020894,115.744895 C31.0556739,115.810997 31.2282997,115.755964 31.3317018,115.607933 L31.3317018,115.607933 C31.3486585,115.580941 31.362804,115.551693 31.3738406,115.520806 C31.5265826,115.110634 31.9187426,114.899233 32.2855715,115.029321 C32.3128791,115.039906 32.3411713,115.046656 32.3698492,115.049427 L32.3698492,115.049427 C32.5335122,115.05389 32.6815199,114.936559 32.7381948,114.757426 C32.7948696,114.578293 32.747685,114.376952 32.6207667,114.256349 L32.6207667,114.256349 C32.5976242,114.236572 32.5725481,114.220073 32.5460661,114.2072 Z" id="路径" fill="#4D8AF0" opacity="0.5"></path>
                    <path d="M115.079408,36.2868047 C114.639818,36.1231973 114.413255,35.7031408 114.552673,35.3102174 C114.564017,35.2809673 114.571251,35.2506625 114.574221,35.2199446 L114.574221,35.2199446 C114.579004,35.0446394 114.453258,34.886103 114.261277,34.8253966 C114.069297,34.7646902 113.853514,34.8152313 113.724262,34.951178 L113.724262,34.951178 C113.703066,34.9759667 113.685384,35.0028266 113.671588,35.0311925 C113.480661,35.4078808 112.990461,35.6020245 112.531924,35.4825564 C112.49779,35.4728354 112.462425,35.4666367 112.426577,35.4640915 L112.426577,35.4640915 C112.221999,35.4599928 112.036989,35.5677458 111.966145,35.7322556 C111.895302,35.8967654 111.954283,36.081671 112.112931,36.1924286 L112.112931,36.1924286 C112.141859,36.2105916 112.173204,36.2257433 112.206306,36.237565 C112.645896,36.4011724 112.872459,36.8212289 112.733042,37.2141523 C112.721697,37.2434024 112.714464,37.2737072 112.711493,37.3044251 L112.711493,37.3044251 C112.70671,37.4797304 112.832457,37.6382667 113.024437,37.6989731 C113.216418,37.7596796 113.4322,37.7091384 113.561453,37.5731918 L113.561453,37.5731918 C113.582648,37.5484031 113.60033,37.5215431 113.614126,37.4931773 C113.805054,37.116489 114.295254,36.9223452 114.75379,37.0418134 C114.787924,37.0515344 114.82329,37.0577331 114.859137,37.0602783 L114.859137,37.0602783 C115.063716,37.064377 115.248725,36.9566239 115.319569,36.7921141 C115.390412,36.6276043 115.331432,36.4426988 115.172784,36.3319411 L115.172784,36.3319411 C115.143856,36.3137782 115.112511,36.2986264 115.079408,36.2868047 L115.079408,36.2868047 Z" id="路径" fill="#4D8AF0" opacity="0.5"></path>
                    <path d="M63.9428915,113.97592 C63.5912195,113.823219 63.4099691,113.431167 63.5215032,113.064438 C63.5305786,113.037138 63.5363656,113.008854 63.5387418,112.980184 L63.5387418,112.980184 C63.5425683,112.816565 63.4419713,112.668598 63.2883868,112.611939 C63.1348023,112.555279 62.9621765,112.602451 62.8587744,112.729335 L62.8587744,112.729335 C62.8418177,112.752471 62.8276722,112.77754 62.8166356,112.804015 C62.6638936,113.155591 62.2717336,113.336792 61.9049047,113.225288 C61.8775971,113.216215 61.8493049,113.21043 61.820627,113.208054 L61.820627,113.208054 C61.656964,113.204229 61.5089563,113.304798 61.4522814,113.458341 C61.3956066,113.611883 61.4427912,113.784462 61.5697095,113.887835 L61.5697095,113.887835 C61.5928519,113.904787 61.6179281,113.918929 61.6444101,113.929963 C61.9960821,114.082663 62.1773325,114.474716 62.0657984,114.841444 C62.056723,114.868744 62.0509359,114.897029 62.0485598,114.925699 L62.0485598,114.925699 C62.0447333,115.089317 62.1453303,115.237284 62.2989148,115.293944 C62.4524993,115.350603 62.6251251,115.303431 62.7285272,115.176548 L62.7285272,115.176548 C62.7454839,115.153411 62.7596294,115.128342 62.770666,115.101867 C62.923408,114.750292 63.315568,114.569091 63.6823969,114.680594 C63.7097045,114.689667 63.7379967,114.695453 63.7666746,114.697828 L63.7666746,114.697828 C63.9303376,114.701654 64.0783453,114.601084 64.1350202,114.447542 C64.191695,114.293999 64.1445104,114.121421 64.0175921,114.018047 L64.0175921,114.018047 C63.9944496,114.001095 63.9693735,113.986953 63.9428915,113.97592 L63.9428915,113.97592 Z" id="路径" fill="#4D8AF0" opacity="0.5"></path>
                    <ellipse id="椭圆形" fill="#F55F44" opacity="0.5" cx="98.968254" cy="110.2" rx="1.70634921" ry="1.70588235"></ellipse>
                    <ellipse id="椭圆形" fill="#4D8AF0" opacity="0.5" cx="86" cy="1.70588235" rx="1.70634921" ry="1.70588235"></ellipse>
                    <ellipse id="椭圆形" fill="#47E6B1" opacity="0.5" cx="37.5396825" cy="10.5764706" rx="1.70634921" ry="1.70588235"></ellipse>
                    <ellipse id="椭圆形" fill="#F55F44" opacity="0.5" cx="15.015873" cy="35.1411765" rx="1.70634921" ry="1.70588235"></ellipse>
                </g>
                <g id="编组-3" opacity="0.699999988" transform="translate(47.500000, 57.500000) scale(1, -1) translate(-47.500000, -57.500000) translate(39.000000, 48.000000)" fill="#CECAFF" fill-rule="nonzero">
                    <rect id="矩形复制-3" transform="translate(8.160000, 4.222222) rotate(-180.000000) translate(-8.160000, -4.222222) " x="6.12" y="2.11111111" width="4.08" height="4.22222222" rx="2"></rect>
                    <rect id="矩形复制-4" transform="translate(4.080000, 9.148148) rotate(-180.000000) translate(-4.080000, -9.148148) " x="2.04" y="7.03703704" width="4.08" height="4.22222222" rx="2"></rect>
                    <rect id="矩形复制-5" transform="translate(14.960000, 2.111111) rotate(-180.000000) translate(-14.960000, -2.111111) " x="12.92" y="0" width="4.08" height="4.22222222" rx="2"></rect>
                    <rect id="矩形复制-6" x="0" y="14.7777778" width="4.08" height="4.22222222" rx="2"></rect>
                </g>
                <g id="编组-6" transform="translate(16.000000, 0.000000)">
                    <g id="编组-2" transform="translate(0.000000, 10.731575)" fill-rule="nonzero">
                        <g id="椭圆形">
                            <use fill="black" fill-opacity="1" filter="url(#filter-2)" xlink:href="#path-1"></use>
                            <use fill="#A49EFF" xlink:href="#path-1"></use>
                        </g>
                        <ellipse id="椭圆形" fill="#000000" opacity="0.05" cx="33.1042749" cy="20.1453685" rx="5.80178015" ry="5.8045977"></ellipse>
                        <ellipse id="椭圆形" fill="#000000" opacity="0.05" cx="50.8508966" cy="82.9716024" rx="5.80178015" ry="5.8045977"></ellipse>
                        <ellipse id="椭圆形" fill="#000000" opacity="0.05" cx="56.9939579" cy="40.6321839" rx="11.9448415" ry="11.9506423"></ellipse>
                    </g>
                    <g id="undraw_mail_box_kd5i" transform="translate(9.555873, 32.584178)" fill-rule="nonzero">
                        <rect id="矩形" fill="url(#linearGradient-3)" x="35.4932432" y="40.9736308" width="7.50818607" height="32.0960108"></rect>
                        <rect id="矩形" fill="#443FA3" opacity="0.495186942" x="36.1758056" y="40.9736308" width="6.14306133" height="31.413117"></rect>
                        <path d="M60.8884409,15.0236646 L26.5681523,15.0236646 C25.3884294,15.0538162 24.2258018,15.3132974 23.1449298,15.7876771 C19.6561715,17.3362125 17.6255852,19.7666952 17.0521468,25.1568289 L17.0521468,37.6097197 L7.95802802,37.5133208 C6.1291691,37.5133208 5.46049896,40.3929813 5.46049896,42.3394185 L66.8911123,42.3394185 L66.8911123,21.4116295 C66.8911123,17.8838402 64.2072157,15.0236646 60.8884409,15.0236646 Z" id="路径" fill="url(#linearGradient-4)"></path>
                        <path d="M27.9850572,16.3894523 L62.0371482,16.3894523 C64.3409498,16.3894523 66.2085499,18.2331196 66.2085499,20.5073984 L66.2085499,40.9736308 L27.9850572,40.9736308 L27.9850572,16.3894523 Z" id="路径" fill="#6C63FF"></path>
                        <path d="M26.9612136,16.3894523 L26.9612136,16.3894523 C32.0502923,16.3894523 36.1758056,20.4724411 36.1758056,25.509063 L36.1758056,36.510498 C36.1758056,38.9754182 34.1567815,40.9736308 31.666189,40.9736308 L22.2562382,40.9736308 C19.7656458,40.9736308 17.7466216,38.9754182 17.7466216,36.510498 L17.7466216,25.509063 C17.7466216,20.4724411 21.872135,16.3894523 26.9612136,16.3894523 Z" id="路径" fill="#6C63FF"></path>
                        <path d="M26.9612136,16.3894523 L26.9612136,16.3894523 C32.0502923,16.3894523 36.1758056,20.4724411 36.1758056,25.509063 L36.1758056,36.510498 C36.1758056,38.9754182 34.1567815,40.9736308 31.666189,40.9736308 L22.2562382,40.9736308 C19.7656458,40.9736308 17.7466216,38.9754182 17.7466216,36.510498 L17.7466216,25.509063 C17.7466216,20.4724411 21.872135,16.3894523 26.9612136,16.3894523 Z" id="路径" fill="#000000" opacity="0.2"></path>
                        <polygon id="路径" fill="url(#linearGradient-5)" points="51.1921778 12.9749831 46.4998137 12.9749831 43.6839917 12.9749831 43.6839917 18.7915361 43.6839917 25.9499662 47.0920342 25.9499662 47.0920342 18.7915361 51.1921778 18.7915361"></polygon>
                        <path d="M26.7869529,16.3894552 L26.7869529,16.3894552 C25.5587336,16.3884956 24.3423344,16.6261986 23.2071206,17.0890091 C23.6493025,17.0263846 24.0954228,16.9947569 24.5421323,16.9943636 L24.5421323,16.9943636 C27.0322108,16.9943636 29.4203023,17.9708171 31.1810537,19.7089156 C32.9418052,21.4470141 33.930985,23.8043815 33.930985,26.2624239 L33.930985,40.9736308 L36.1758056,40.9736308 L36.1758056,25.6575156 C36.1758056,20.5389072 31.9722731,16.3894552 26.7869529,16.3894552 Z" id="路径" fill="#000000" opacity="0.2"></path>
                        <path d="M9.99899947,37.5591616 L36.1758056,37.5591616 L36.1758056,40.9736308 L6.8256237,40.9736308 L6.8256237,40.9736308 C6.8256237,39.0878715 8.24639243,37.5591616 9.99899947,37.5591616 L9.99899947,37.5591616 Z" id="路径" fill="#6C63FF"></path>
                        <path d="M9.99899947,37.5591616 L36.1758056,37.5591616 L36.1758056,40.9736308 L6.8256237,40.9736308 L6.8256237,40.9736308 C6.8256237,39.0878715 8.24639243,37.5591616 9.99899947,37.5591616 L9.99899947,37.5591616 Z" id="路径" fill="#FFFFFF" opacity="0.2"></path>
                        <polygon id="路径" fill="url(#linearGradient-6)" points="67.1986148 7.36061537 66.8911123 7.51183232 66.9263146 7.44821691 66.8993952 7.45655992 66.9377036 7.42840228 71.0812221 0 73.1995727 1.81981777 75.0176683 3.51449048 74.4958458 3.77103785 75.0818607 4.81287049"></polygon>
                        <polygon id="路径" fill="#6C63FF" points="72.7432023 2.04868154 74.3992983 3.64169905 66.8911123 7.51183232 70.8868053 2.20177395"></polygon>
                        <polygon id="路径" fill="#000000" opacity="0.2" points="72.7432023 2.04868154 74.3992983 3.64169905 66.8911123 7.51183232 70.8868053 2.20177395"></polygon>
                        <polygon id="路径" fill="#6C63FF" points="71.0052726 0.682893847 66.8911123 7.51183232 73.0341736 2.30985098"></polygon>
                        <polygon id="路径" fill="#6C63FF" points="74.3992983 4.29839913 66.8911123 6.82893847 73.166933 2.04868154"></polygon>
                        <polygon id="路径" fill="url(#linearGradient-7)" points="12.4784493 9.48163958 12.968685 9.56051386 12.8927908 9.48590305 12.9348403 9.48590305 12.869202 9.46245394 3.96085896 0.682893847 1.79889866 4.22903886 0 7.46395022 0.832785468 7.59824967 0.463570236 9.35053774"></polygon>
                        <polygon id="路径" fill="#6C63FF" points="2.26540498 4.0139948 0.68256237 6.89441434 12.2861227 8.87762001 4.81257617 3.41446924"></polygon>
                        <polygon id="路径" fill="#000000" opacity="0.2" points="2.26540498 4.0139948 0.68256237 6.89441434 12.2861227 8.87762001 4.81257617 3.41446924"></polygon>
                        <polygon id="路径" fill="#6C63FF" points="3.99502907 0.682893847 12.2861227 8.87762001 2.04768711 3.908004"></polygon>
                        <polygon id="路径" fill="#6C63FF" points="1.36512474 7.99752687 12.968685 8.19472617 2.13670646 4.78025693"></polygon>
                    </g>
                    <g id="失败" filter="url(#filter-8)" transform="translate(62.000000, 0.000000)">
                        <ellipse id="椭圆形" fill="#EBEAFF" cx="23.8276318" cy="23.8392034" rx="23.8276318" ry="23.8392034"></ellipse>
                        <path d="M22.0405594,28.4154791 C22.3384049,29.2455942 22.9340956,29.7990043 23.8276318,29.7990042 C24.721168,29.7990042 25.3168588,29.2455942 25.6147042,28.4154791 L26.8060858,13.1967019 C26.8060858,11.5364716 25.3168588,10.4296515 23.8276318,10.4296515 C22.0405594,10.4296515 20.8491778,11.8131767 20.8491778,13.4734069 L22.0405594,28.4154791 Z M23.8276318,31.2889545 C22.0405594,31.2889545 20.8491778,32.4809146 20.8491778,34.2688549 C20.8491778,36.0567952 22.0405594,37.2487553 23.8276318,37.2487553 C25.6147042,37.2487553 26.8060858,36.0567951 26.8060858,34.2688549 C26.8060858,32.4809147 25.6147042,31.2889545 23.8276318,31.2889545 Z" id="形状" fill="#6C63FF" fill-rule="nonzero"></path>
                    </g>
                </g>
            </g>
        </g>
    </g>
</svg>