<?xml version="1.0" encoding="UTF-8"?>
<svg width="129px" height="116px" viewBox="0 0 129 116" version="1.1" xmlns="http://www.w3.org/2000/svg" xmlns:xlink="http://www.w3.org/1999/xlink">
    <!-- Generator: Sketch 54.1 (76490) - https://sketchapp.com -->
    <title>失败</title>
    <desc>Created with Sketch.</desc>
    <defs>
        <ellipse id="path-1" cx="48.8015873" cy="47.7777778" rx="47.4365079" ry="47.0952381"></ellipse>
        <filter x="-1.1%" y="-1.1%" width="104.2%" height="104.2%" filterUnits="objectBoundingBox" id="filter-2">
            <feOffset dx="2" dy="2" in="SourceAlpha" result="shadowOffsetOuter1"></feOffset>
            <feColorMatrix values="0 0 0 0 0.986186594   0 0 0 0 0.798626983   0 0 0 0 0.798626983  0 0 0 1 0" type="matrix" in="shadowOffsetOuter1"></feColorMatrix>
        </filter>
        <linearGradient x1="50%" y1="100%" x2="50%" y2="0%" id="linearGradient-3">
            <stop stop-color="#808080" stop-opacity="0.25" offset="0%"></stop>
            <stop stop-color="#808080" stop-opacity="0.12" offset="54%"></stop>
            <stop stop-color="#808080" stop-opacity="0.1" offset="100%"></stop>
        </linearGradient>
        <linearGradient x1="-0.00666766682%" y1="50%" x2="100%" y2="50%" id="linearGradient-4">
            <stop stop-color="#808080" stop-opacity="0.25" offset="0%"></stop>
            <stop stop-color="#808080" stop-opacity="0.12" offset="54%"></stop>
            <stop stop-color="#808080" stop-opacity="0.1" offset="100%"></stop>
        </linearGradient>
        <linearGradient x1="-7.41306975e-14%" y1="49.9959926%" x2="100%" y2="49.9959926%" id="linearGradient-5">
            <stop stop-color="#808080" stop-opacity="0.25" offset="0%"></stop>
            <stop stop-color="#808080" stop-opacity="0.12" offset="54%"></stop>
            <stop stop-color="#808080" stop-opacity="0.1" offset="100%"></stop>
        </linearGradient>
        <linearGradient x1="0%" y1="50%" x2="100%" y2="50%" id="linearGradient-6">
            <stop stop-color="#808080" stop-opacity="0.25" offset="0%"></stop>
            <stop stop-color="#808080" stop-opacity="0.12" offset="54%"></stop>
            <stop stop-color="#808080" stop-opacity="0.1" offset="100%"></stop>
        </linearGradient>
        <linearGradient x1="-5.46886847e-14%" y1="50%" x2="100%" y2="50%" id="linearGradient-7">
            <stop stop-color="#808080" stop-opacity="0.25" offset="0%"></stop>
            <stop stop-color="#808080" stop-opacity="0.12" offset="54%"></stop>
            <stop stop-color="#808080" stop-opacity="0.1" offset="100%"></stop>
        </linearGradient>
        <linearGradient x1="73.6130704%" y1="88.7164723%" x2="16.5962584%" y2="43.713257%" id="linearGradient-8">
            <stop stop-color="#808080" stop-opacity="0.25" offset="0%"></stop>
            <stop stop-color="#808080" stop-opacity="0.12" offset="54%"></stop>
            <stop stop-color="#808080" stop-opacity="0.1" offset="100%"></stop>
        </linearGradient>
        <linearGradient x1="33.4305739%" y1="85.7448069%" x2="70.2389788%" y2="44.4581622%" id="linearGradient-9">
            <stop stop-color="#808080" stop-opacity="0.25" offset="0%"></stop>
            <stop stop-color="#808080" stop-opacity="0.12" offset="54%"></stop>
            <stop stop-color="#808080" stop-opacity="0.1" offset="100%"></stop>
        </linearGradient>
        <circle id="path-10" cx="24" cy="24" r="24"></circle>
        <filter x="-2.1%" y="-2.1%" width="108.3%" height="108.3%" filterUnits="objectBoundingBox" id="filter-11">
            <feOffset dx="2" dy="2" in="SourceAlpha" result="shadowOffsetOuter1"></feOffset>
            <feColorMatrix values="0 0 0 0 0.639215686   0 0 0 0 0.247058824   0 0 0 0 0.247058824  0 0 0 0.574874344 0" type="matrix" in="shadowOffsetOuter1"></feColorMatrix>
        </filter>
    </defs>
    <g id="页面1" stroke="none" stroke-width="1" fill="none" fill-rule="evenodd">
        <g id="退订失败" transform="translate(-896.000000, -131.000000)">
            <g id="失败" transform="translate(896.000000, 131.000000)">
                <g id="编组-9复制-2" opacity="0.400000006" fill-rule="nonzero">
                    <path d="M16.9269841,11.3438095 L18.9746032,11.3438095 L18.9746032,12.7088889 L16.9269841,12.7088889 L16.9269841,14.7565079 L15.5619048,14.7565079 L15.5619048,12.7088889 L13.5142857,12.7088889 L13.5142857,11.3438095 L15.5619048,11.3438095 L15.5619048,8.61365079 L16.9269841,8.61365079 L16.9269841,11.3438095 Z" id="形状结合" fill="#47E6B1"></path>
                    <path d="M114.530159,5.20095238 L116.577778,5.20095238 L116.577778,6.56603175 L114.530159,6.56603175 L114.530159,8.61365079 L113.165079,8.61365079 L113.165079,6.56603175 L111.11746,6.56603175 L111.11746,5.20095238 L113.165079,5.20095238 L113.165079,3.15333333 L114.530159,3.15333333 L114.530159,5.20095238 Z" id="形状结合" fill="#47E6B1"></path>
                    <path d="M126.815873,72.0898413 L128.863492,72.0898413 L128.863492,73.4549206 L126.815873,73.4549206 L126.815873,75.5025397 L125.450794,75.5025397 L125.450794,73.4549206 L123.403175,73.4549206 L123.403175,72.0898413 L125.450794,72.0898413 L125.450794,70.0422222 L126.815873,70.0422222 L126.815873,72.0898413 Z" id="形状结合" fill="#47E6B1"></path>
                    <path d="M16.9269841,103.145397 L19.315873,103.145397 L19.315873,104.510476 L16.9269841,104.510476 L16.9269841,106.216825 L15.5619048,106.216825 L15.5619048,104.510476 L13.1730159,104.510476 L13.1730159,103.145397 L15.5619048,103.145397 L15.5619048,100.756508 L16.9269841,100.756508 L16.9269841,103.145397 Z" id="形状结合" fill="#47E6B1"></path>
                    <path d="M2.51432003,78.7463923 C2.16264806,78.5681933 1.98139765,78.1106733 2.09293179,77.6827062 C2.10200717,77.6508474 2.10779422,77.6178398 2.1101704,77.5843823 L2.1101704,77.5843823 C2.1139969,77.3934421 2.01339986,77.2207664 1.85981536,77.1546458 C1.70623087,77.0885251 1.53360509,77.1435739 1.430203,77.2916452 L1.430203,77.2916452 C1.4132463,77.3186447 1.39910077,77.3479002 1.38806418,77.3787959 C1.23532214,77.7890799 0.843162147,78.0005387 0.476333247,77.8704156 C0.449025691,77.8598276 0.420733447,77.8530761 0.392055598,77.8503038 L0.392055598,77.8503038 C0.228392556,77.8458396 0.0803848326,77.9632028 0.0237099919,78.1423847 C-0.0329648487,78.3215666 0.0142198048,78.5229634 0.141138052,78.6435991 L0.141138052,78.6435991 C0.16428052,78.663382 0.189356676,78.6798851 0.215838696,78.6927611 C0.567510667,78.8709602 0.748761083,79.3284801 0.637226941,79.7564472 C0.62815156,79.788306 0.62236451,79.8213136 0.619988331,79.8547711 L0.619988331,79.8547711 C0.616161832,80.0457113 0.716758875,80.218387 0.870343367,80.2845077 C1.02392786,80.3506283 1.19655364,80.2955795 1.29995573,80.1475083 L1.29995573,80.1475083 C1.31691243,80.1205087 1.33105796,80.0912532 1.34209455,80.0603575 C1.49483659,79.6500735 1.88699658,79.4386147 2.25382548,79.5687379 C2.28113304,79.5793258 2.30942528,79.5860774 2.33810313,79.5888496 L2.33810313,79.5888496 C2.50176617,79.5933138 2.6497739,79.4759506 2.70644874,79.2967687 C2.76312358,79.1175868 2.71593893,78.9161901 2.58902068,78.7955543 L2.58902068,78.7955543 C2.56587821,78.7757715 2.54080205,78.7592684 2.51432003,78.7463923 L2.51432003,78.7463923 Z" id="路径" fill="#4D8AF0" opacity="0.5"></path>
                    <path d="M32.5460661,114.238456 C32.1943941,114.060257 32.0131437,113.602737 32.1246778,113.17477 C32.1337532,113.142911 32.1395403,113.109903 32.1419164,113.076446 L32.1419164,113.076446 C32.1457429,112.885506 32.0451459,112.71283 31.8915614,112.646709 C31.7379769,112.580589 31.5653511,112.635637 31.461949,112.783709 L31.461949,112.783709 C31.4449923,112.810708 31.4308468,112.839964 31.4198102,112.870859 C31.2670682,113.281143 30.8749082,113.492602 30.5080793,113.362479 C30.4807717,113.351891 30.4524795,113.34514 30.4238016,113.342367 L30.4238016,113.342367 C30.2601386,113.337903 30.1121309,113.455266 30.055456,113.634448 C29.9987812,113.81363 30.0459658,114.015027 30.1728841,114.135663 L30.1728841,114.135663 C30.1960266,114.155445 30.2211027,114.171949 30.2475847,114.184825 C30.5992567,114.363024 30.7805071,114.820544 30.668973,115.248511 C30.6598976,115.280369 30.6541105,115.313377 30.6517344,115.346835 L30.6517344,115.346835 C30.6479079,115.537775 30.7485049,115.71045 30.9020894,115.776571 C31.0556739,115.842692 31.2282997,115.787643 31.3317018,115.639572 L31.3317018,115.639572 C31.3486585,115.612572 31.362804,115.583317 31.3738406,115.552421 C31.5265826,115.142137 31.9187426,114.930678 32.2855715,115.060801 C32.3128791,115.071389 32.3411713,115.078141 32.3698492,115.080913 L32.3698492,115.080913 C32.5335122,115.085377 32.6815199,114.968014 32.7381948,114.788832 C32.7948696,114.60965 32.747685,114.408254 32.6207667,114.287618 L32.6207667,114.287618 C32.5976242,114.267835 32.5725481,114.251332 32.5460661,114.238456 Z" id="路径" fill="#4D8AF0" opacity="0.5"></path>
                    <path d="M115.079408,36.2967354 C114.639818,36.1330832 114.413255,35.7129118 114.552673,35.3198809 C114.564017,35.2906228 114.571251,35.2603096 114.574221,35.2295834 L114.574221,35.2295834 C114.579004,35.0542301 114.453258,34.8956504 114.261277,34.8349274 C114.069297,34.7742043 113.853514,34.8247593 113.724262,34.9607432 L113.724262,34.9607432 C113.703066,34.9855387 113.685384,35.012406 113.671588,35.0407796 C113.480661,35.417571 112.990461,35.6117678 112.531924,35.492267 C112.49779,35.4825433 112.462425,35.4763429 112.426577,35.473797 L112.426577,35.473797 C112.221999,35.4696972 112.036989,35.5774797 111.966145,35.7420346 C111.895302,35.9065894 111.954283,36.0915456 112.112931,36.2023335 L112.112931,36.2023335 C112.141859,36.2205014 112.173204,36.2356573 112.206306,36.2474823 C112.645896,36.4111344 112.872459,36.8313059 112.733042,37.2243368 C112.721697,37.2535949 112.714464,37.283908 112.711493,37.3146343 L112.711493,37.3146343 C112.70671,37.4899876 112.832457,37.6485673 113.024437,37.7092903 C113.216418,37.7700134 113.4322,37.7194584 113.561453,37.5834745 L113.561453,37.5834745 C113.582648,37.558679 113.60033,37.5318117 113.614126,37.5034381 C113.805054,37.1266467 114.295254,36.9324499 114.75379,37.0519507 C114.787924,37.0616743 114.82329,37.0678748 114.859137,37.0704207 L114.859137,37.0704207 C115.063716,37.0745205 115.248725,36.9667379 115.319569,36.8021831 C115.390412,36.6376283 115.331432,36.4526721 115.172784,36.3418842 L115.172784,36.3418842 C115.143856,36.3237163 115.112511,36.3085604 115.079408,36.2967354 L115.079408,36.2967354 Z" id="路径" fill="#4D8AF0" opacity="0.5"></path>
                    <path d="M63.9428915,114.007112 C63.5912195,113.85437 63.4099691,113.46221 63.5215032,113.095381 C63.5305786,113.068073 63.5363656,113.039781 63.5387418,113.011103 L63.5387418,113.011103 C63.5425683,112.84744 63.4419713,112.699432 63.2883868,112.642758 C63.1348023,112.586083 62.9621765,112.633267 62.8587744,112.760186 L62.8587744,112.760186 C62.8418177,112.783328 62.8276722,112.808404 62.8166356,112.834886 C62.6638936,113.186558 62.2717336,113.367809 61.9049047,113.256275 C61.8775971,113.247199 61.8493049,113.241412 61.820627,113.239036 L61.820627,113.239036 C61.656964,113.235209 61.5089563,113.335806 61.4522814,113.489391 C61.3956066,113.642975 61.4427912,113.815601 61.5697095,113.919003 L61.5697095,113.919003 C61.5928519,113.93596 61.6179281,113.950106 61.6444101,113.961142 C61.9960821,114.113884 62.1773325,114.506044 62.0657984,114.872873 C62.056723,114.900181 62.0509359,114.928473 62.0485598,114.957151 L62.0485598,114.957151 C62.0447333,115.120814 62.1453303,115.268822 62.2989148,115.325496 C62.4524993,115.382171 62.6251251,115.334987 62.7285272,115.208068 L62.7285272,115.208068 C62.7454839,115.184926 62.7596294,115.15985 62.770666,115.133368 C62.923408,114.781696 63.315568,114.600445 63.6823969,114.711979 C63.7097045,114.721055 63.7379967,114.726842 63.7666746,114.729218 L63.7666746,114.729218 C63.9303376,114.733045 64.0783453,114.632447 64.1350202,114.478863 C64.191695,114.325278 64.1445104,114.152653 64.0175921,114.049251 L64.0175921,114.049251 C63.9944496,114.032294 63.9693735,114.018148 63.9428915,114.007112 L63.9428915,114.007112 Z" id="路径" fill="#4D8AF0" opacity="0.5"></path>
                    <circle id="椭圆形" fill="#F55F44" opacity="0.5" cx="98.968254" cy="110.230159" r="1.70634921"></circle>
                    <circle id="椭圆形" fill="#4D8AF0" opacity="0.5" cx="86" cy="1.70634921" r="1.70634921"></circle>
                    <circle id="椭圆形" fill="#47E6B1" opacity="0.5" cx="37.5396825" cy="10.5793651" r="1.70634921"></circle>
                    <circle id="椭圆形" fill="#F55F44" opacity="0.5" cx="15.015873" cy="35.1507937" r="1.70634921"></circle>
                </g>
                <g id="编组-5" transform="translate(16.380952, 9.555556)" fill-rule="nonzero">
                    <g id="编组-2复制">
                        <g id="椭圆形">
                            <use fill="black" fill-opacity="1" filter="url(#filter-2)" xlink:href="#path-1"></use>
                            <use fill="#FE8C8C" xlink:href="#path-1"></use>
                        </g>
                        <circle id="椭圆形" fill="#000000" opacity="0.05" cx="33.1031746" cy="20.1349206" r="5.8015873"></circle>
                        <circle id="椭圆形" fill="#000000" opacity="0.05" cx="50.8492063" cy="82.9285714" r="5.8015873"></circle>
                        <circle id="椭圆形" fill="#000000" opacity="0.05" cx="56.9920635" cy="40.6111111" r="11.9444444"></circle>
                    </g>
                    <g id="undraw_mail_box_kd5i复制" transform="translate(9.555556, 21.841270)">
                        <rect id="矩形" fill="url(#linearGradient-3)" x="35.4920635" y="40.952381" width="7.50793651" height="32.0793651"></rect>
                        <rect id="矩形" fill="#742B2B" opacity="0.600000024" x="36.1746032" y="40.952381" width="6.14285714" height="31.3968254"></rect>
                        <path d="M60.8864171,15.015873 L26.5672692,15.015873 C25.3875856,15.0460089 24.2249966,15.3053556 23.1441605,15.7794893 C19.6555182,17.3272215 17.6249993,19.7564437 17.05158,25.143782 L17.05158,37.5902145 L7.95776351,37.4938656 C6.12896538,37.4938656 5.46031746,40.3720326 5.46031746,42.3174603 L66.8888889,42.3174603 L66.8888889,21.4005249 C66.8888889,17.8745653 64.2050816,15.015873 60.8864171,15.015873 Z" id="路径" fill="url(#linearGradient-4)"></path>
                        <path d="M27.984127,16.3809524 L62.0350862,16.3809524 C64.3388111,16.3809524 66.2063492,18.2236635 66.2063492,20.4967628 L66.2063492,40.952381 L27.984127,40.952381 L27.984127,16.3809524 Z" id="路径" fill="#D25151"></path>
                        <path d="M26.9603175,16.3809524 L26.9603175,16.3809524 C32.0492269,16.3809524 36.1746032,20.4618236 36.1746032,25.4958334 L36.1746032,36.4915628 C36.1746032,38.9552047 34.1556462,40.952381 31.6651365,40.952381 L22.2554985,40.952381 C19.7649888,40.952381 17.7460317,38.9552047 17.7460317,36.4915628 L17.7460317,25.4958334 C17.7460317,20.4618236 21.871408,16.3809524 26.9603175,16.3809524 Z" id="路径" fill="#D25151"></path>
                        <path d="M26.9603175,16.3809524 L26.9603175,16.3809524 C32.0492269,16.3809524 36.1746032,20.4618236 36.1746032,25.4958334 L36.1746032,36.4915628 C36.1746032,38.9552047 34.1556462,40.952381 31.6651365,40.952381 L22.2554985,40.952381 C19.7649888,40.952381 17.7460317,38.9552047 17.7460317,36.4915628 L17.7460317,25.4958334 C17.7460317,20.4618236 21.871408,16.3809524 26.9603175,16.3809524 Z" id="路径" fill="#D25151" opacity="0.2"></path>
                        <polygon id="矩形" fill="url(#linearGradient-5)" transform="translate(23.621867, 25.515360) rotate(-83.060000) translate(-23.621867, -25.515360) " points="19.7072572 19.1332598 27.5329638 19.1354185 27.5364763 31.8974601 19.7107697 31.8953014"></polygon>
                        <polygon id="矩形" fill="#FAF8E4" transform="translate(23.570705, 25.441876) rotate(-83.060000) translate(-23.570705, -25.441876) " points="19.9174198 19.2761795 27.2205962 19.278194 27.2239896 31.6075721 19.9208132 31.6055576"></polygon>
                        <g id="编组" opacity="0.6" transform="translate(17.746032, 21.158730)">
                            <polygon id="矩形" fill="#D25151" transform="translate(1.510250, 0.779789) rotate(-173.060000) translate(-1.510250, -0.779789) " points="0.743156819 0.149529413 2.26294054 0.168995257 2.27734324 1.41004835 0.757559513 1.39058251"></polygon>
                            <polygon id="矩形" fill="#6C63FF" transform="translate(4.574049, 4.050774) rotate(-173.060000) translate(-4.574049, -4.050774) " points="1.65450258 3.81221688 7.48892654 3.88694593 7.49359631 4.28933142 1.65917235 4.21460238"></polygon>
                            <polygon id="矩形" fill="#6C63FF" transform="translate(5.254753, 5.090328) rotate(-173.060000) translate(-5.254753, -5.090328) " points="3.12609624 4.92913751 7.38030179 4.98362664 7.38341074 5.25151916 3.12920519 5.19703002"></polygon>
                        </g>
                        <polygon id="矩形" fill="url(#linearGradient-5)" transform="translate(28.783886, 27.224107) rotate(-83.060000) translate(-28.783886, -27.224107) " points="24.8692766 20.8420072 32.6949833 20.8441658 32.6984957 33.6062075 24.8727891 33.6040488"></polygon>
                        <polygon id="矩形" fill="#FAF8E4" transform="translate(28.732724, 27.151644) rotate(-83.060000) translate(-28.732724, -27.151644) " points="25.0794393 20.9859474 32.3826157 20.987962 32.3860091 33.31734 25.0828327 33.3153255"></polygon>
                        <g id="编组" opacity="0.6" transform="translate(23.888889, 23.206349)">
                            <polygon id="矩形" fill="#D25151" transform="translate(0.862066, 0.753033) rotate(-173.060000) translate(-0.862066, -0.753033) " points="0.104690845 0.121590254 1.60311371 0.143656179 1.61944019 1.3844751 0.121017328 1.36240918"></polygon>
                            <polygon id="矩形" fill="#6C63FF" transform="translate(3.882096, 4.024018) rotate(-173.060000) translate(-3.882096, -4.024018) " points="1.00323963 3.78050781 6.7556596 3.86521852 6.76095312 4.26752809 1.00853315 4.18281738"></polygon>
                            <polygon id="矩形" fill="#6C63FF" transform="translate(4.551133, 5.063440) rotate(-173.060000) translate(-4.551133, -5.063440) " points="2.45216507 4.89863517 6.64657692 4.9604025 6.65010114 5.22824447 2.45568929 5.16647715"></polygon>
                        </g>
                        <polygon id="矩形" fill="url(#linearGradient-6)" transform="translate(19.899010, 29.608641) rotate(-83.060000) translate(-19.899010, -29.608641) " points="14.592744 20.9579973 25.2005159 20.9609234 25.2052769 38.2592842 14.597505 38.2563581"></polygon>
                        <polygon id="矩形" fill="#FFFFFF" transform="translate(19.830653, 29.507968) rotate(-83.060000) translate(-19.830653, -29.507968) " points="14.8780939 21.1504672 24.7786129 21.1531982 24.7832126 37.8654687 14.8826936 37.8627377"></polygon>
                        <g id="编组" opacity="0.6" transform="translate(12.285714, 24.571429)" fill="#D25151">
                            <polygon id="矩形" transform="translate(1.220880, 0.947462) rotate(-173.060000) translate(-1.220880, -0.947462) " points="0.173218081 0.156849115 2.26496469 0.161685664 2.26854267 1.73807454 0.176796058 1.73323799"></polygon>
                            <polygon id="矩形" transform="translate(5.442605, 5.099629) rotate(-173.060000) translate(-5.442605, -5.099629) " points="1.4260517 4.83461593 9.45799647 4.85318744 9.45915733 5.36464261 1.42721256 5.3460711"></polygon>
                            <polygon id="矩形" transform="translate(6.381399, 6.417904) rotate(-173.060000) translate(-6.381399, -6.417904) " points="3.45266726 6.24047696 9.30935653 6.25401883 9.31013122 6.5953306 3.45344194 6.58178873"></polygon>
                        </g>
                        <polygon id="矩形" fill="url(#linearGradient-7)" transform="translate(26.896487, 31.924767) rotate(-83.060000) translate(-26.896487, -31.924767) " points="21.5902208 23.2741237 32.1979926 23.2770497 32.2027536 40.5754106 21.5949818 40.5724845"></polygon>
                        <polygon id="矩形" fill="#FFFFFF" transform="translate(26.826991, 31.826005) rotate(-83.060000) translate(-26.826991, -31.826005) " points="21.8744317 23.4685039 31.7749507 23.4712349 31.7795504 40.1835053 21.8790314 40.1807743"></polygon>
                        <g id="编组" opacity="0.6" transform="translate(19.111111, 26.619048)" fill="#D25151">
                            <polygon id="矩形" transform="translate(1.173411, 0.917773) rotate(-173.060000) translate(-1.173411, -0.917773) " points="0.1157753 0.128373994 2.22944347 0.130542213 2.23104748 1.70717137 0.117379303 1.70500315"></polygon>
                            <polygon id="矩形" transform="translate(5.440047, 5.069940) rotate(-173.060000) translate(-5.440047, -5.069940) " points="1.38172739 4.81001077 9.49784718 4.81833635 9.49836759 5.32986948 1.3822478 5.32154389"></polygon>
                            <polygon id="矩形" transform="translate(6.388707, 6.388207) rotate(-173.060000) translate(-6.388707, -6.388207) " points="3.42949914 6.21448982 9.34756669 6.22056063 9.34791398 6.56192442 3.42984643 6.55585361"></polygon>
                        </g>
                        <path d="M26.7860625,16.3809553 L26.7860625,16.3809553 C25.5578841,16.3799962 24.3415253,16.6175759 23.2063492,17.0801464 C23.6485164,17.0175543 24.0946218,16.985943 24.5413165,16.9855499 L24.5413165,16.9855499 C27.0313123,16.9855499 29.4193244,17.9614971 31.1800173,19.6986941 C32.9407102,21.4358912 33.9298572,23.792036 33.9298572,26.2488036 L33.9298572,40.952381 L36.1746032,40.952381 L36.1746032,25.644209 C36.1746032,20.5282552 31.9712103,16.3809553 26.7860625,16.3809553 Z" id="路径" fill="#000000" opacity="0.2"></path>
                        <path d="M9.99866712,37.5396825 L36.1746032,37.5396825 L36.1746032,40.952381 L6.82539683,40.952381 L6.82539683,40.952381 C6.82539683,39.0675997 8.24611833,37.5396825 9.99866712,37.5396825 L9.99866712,37.5396825 Z" id="路径" fill="#D25151"></path>
                        <path d="M9.99866712,37.5396825 L36.1746032,37.5396825 L36.1746032,40.952381 L6.82539683,40.952381 L6.82539683,40.952381 C6.82539683,39.0675997 8.24611833,37.5396825 9.99866712,37.5396825 L9.99866712,37.5396825 Z" id="路径" fill="#FFFFFF" opacity="0.2"></path>
                        <polygon id="路径" fill="url(#linearGradient-8)" points="67.1963812 7.35679798 66.8888889 7.50793651 66.92409 7.44435409 66.8971715 7.45269277 66.9354786 7.42454974 71.0788595 0 73.1971396 1.81887397 75.0151748 3.51266778 74.4933697 3.76908211 75.0793651 4.81037443"></polygon>
                        <polygon id="路径" fill="#A84040" points="72.7407844 2.04761905 74.3968254 3.63981038 66.8888889 7.50793651 70.8844492 2.20063206"></polygon>
                        <polygon id="路径" fill="#000000" opacity="0.2" points="72.7407844 2.04761905 74.3968254 3.63981038 66.8888889 7.50793651 70.8844492 2.20063206"></polygon>
                        <polygon id="路径" fill="#D25151" points="71.0029125 0.682539683 66.8888889 7.50793651 73.031746 2.30865303"></polygon>
                        <polygon id="路径" fill="#D25151" points="74.3968254 4.29616988 66.8888889 6.82539683 73.164501 2.04761905"></polygon>
                        <polygon id="路径" fill="url(#linearGradient-9)" points="12.4780345 9.47672218 12.968254 9.55555556 12.8923622 9.48098344 12.9344104 9.48098344 12.8687743 9.4575465 3.96072731 0.682539683 1.79883887 4.22684558 0 7.46007924 0.832757787 7.59430904 0.463554827 9.34568833"></polygon>
                        <polygon id="路径" fill="#A84040" points="2.26532968 4.01191305 0.682539683 6.89083874 12.2857143 8.87301587 4.8124162 3.41269841"></polygon>
                        <polygon id="路径" fill="#686868" opacity="0.2" points="2.26532968 4.01191305 0.682539683 6.89083874 12.2857143 8.87301587 4.8124162 3.41269841"></polygon>
                        <polygon id="路径" fill="#D25151" points="3.99489628 0.682539683 12.2857143 8.87301587 2.04761905 3.90597722"></polygon>
                        <polygon id="路径" fill="#D25151" points="1.36507937 7.99337917 12.968254 8.19047619 2.13663544 4.77777778"></polygon>
                    </g>
                </g>
                <g transform="translate(75.000000, 0.000000)">
                    <g id="椭圆形">
                        <use fill="black" fill-opacity="1" filter="url(#filter-11)" xlink:href="#path-10"></use>
                        <use fill="#FFEBEB" fill-rule="evenodd" xlink:href="#path-10"></use>
                    </g>
                    <path d="M15,33.0182566 C15,33.4159539 15.1539474,33.7879934 15.4361842,34.0638158 C15.7184211,34.3460526 16.0840461,34.5 16.4817434,34.5 C16.8794408,34.5 17.2514803,34.3460526 17.5273026,34.0638158 L24.75,26.8411184 L31.9726974,34.0638158 C32.2549342,34.3460526 32.6205592,34.5 33.0182566,34.5 C33.4159539,34.5 33.7879934,34.3460526 34.0638158,34.0638158 C34.3460526,33.7815789 34.5,33.4095395 34.5,33.0182566 C34.5,32.6205592 34.3460526,32.2485197 34.0638158,31.9726974 L26.8411184,24.75 L34.0638158,17.5273026 C34.3460526,17.2450658 34.5,16.8794408 34.5,16.4817434 C34.5,16.0840461 34.3460526,15.7120066 34.0638158,15.4361842 C33.7815789,15.1539474 33.4159539,15 33.0182566,15 C32.6205592,15 32.2485197,15.1539474 31.9726974,15.4361842 L24.7435855,22.6524671 L17.5273026,15.4361842 C17.2450658,15.1539474 16.8794408,15 16.4817434,15 C16.0840461,15 15.7120066,15.1539474 15.4361842,15.4361842 C15.1539474,15.7184211 15,16.0840461 15,16.4817434 C15,16.8794408 15.1539474,17.2514803 15.4361842,17.5273026 L22.6588816,24.75 L15.4297697,31.9662829 C15.1539474,32.2485197 15,32.6205592 15,33.0182566 Z" id="路径" fill="#FF4646" fill-rule="nonzero"></path>
                </g>
            </g>
        </g>
    </g>
</svg>